<?xml version="1.0" encoding="utf-8"?>
<!-- Generator: Adobe Illustrator 24.1.2, SVG Export Plug-In . SVG Version: 6.00 Build 0)  -->
<svg version="1.1" id="レイヤー_1" xmlns="http://www.w3.org/2000/svg" xmlns:xlink="http://www.w3.org/1999/xlink" x="0px"
	 y="0px" viewBox="0 0 662 114.1" style="enable-background:new 0 0 662 114.1;" xml:space="preserve">
<style type="text/css">
	.st0{clip-path:url(#SVGID_2_);}
</style>
<g>
	<defs>
		<rect id="SVGID_1_" width="662" height="114.1"/>
	</defs>
	<clipPath id="SVGID_2_">
		<use xlink:href="#SVGID_1_"  style="overflow:visible;"/>
	</clipPath>
	<path class="st0" d="M232.7,84.6h-48.3c-1.3,0-2.2-0.8-2.2-2.7c0-2,0.9-2.8,2.2-2.8h21.2v-37h-20.1c-1.2,0-2.2-0.8-2.2-2.7
		c0-2,1-2.8,2.2-2.8h46.1c1.2,0,2.2,0.8,2.2,2.8c0,1.9-1,2.7-2.2,2.7h-20.4v37h21.5c1.2,0,2.2,0.8,2.2,2.8
		C235,83.8,234,84.6,232.7,84.6"/>
	<path class="st0" d="M295.8,85.2c-0.5,0-0.9-0.2-1.4-0.6l-14.9-13.1c-7.5,6.8-18,11.7-31.2,13.5c-0.4,0.1-0.9,0.1-1.3,0.1
		c-1.4,0-2.4-1.1-2.4-3c0-1.6,0.7-2.5,2.1-2.7c26-3.4,40.3-19.5,40.3-36.5v-0.8c0-0.8-0.2-1.2-1-1.2h-37.3c-1.4,0-2.2-1.1-2.2-2.9
		c0-1.7,0.8-2.7,2.2-2.7h40.3c3,0,4.2,1.4,4.2,4.1v2.7c0,8.9-3.2,17.7-9.4,25l14,12.4c0.7,0.7,0.9,1.4,0.9,2.2
		C298.5,83.8,297.3,85.2,295.8,85.2"/>
	<path class="st0" d="M357,47h-4.9v8.6c0,17.6-8.1,29.7-32.8,29.7h-7.7c-1.2,0-2.4-0.8-2.4-2.7c0-2,1.1-2.8,2.4-2.8h7.7
		c21.3,0,27.1-10.1,27.1-24.5V47h-26.6c-2.6,5.6-6.2,10.2-9.4,13c-0.6,0.5-1.1,0.7-1.7,0.7c-1.4,0-2.7-1.4-2.7-3.6
		c0-0.8,0.3-1.6,1-2.2c4.6-4.1,9.4-11.8,10.4-20.7c0.1-1.1,0.9-1.9,2.5-1.9c1.6,0,3.2,0.8,3.2,2.2c0,0.3,0,0.6-0.1,0.8
		c-0.2,2.1-0.6,4.1-1.2,6.1H357c1.2,0,2.2,0.9,2.2,2.8C359.3,46.2,358.3,47,357,47"/>
	<path class="st0" d="M418.5,36c-2.2,8.8-9.2,13.1-19.2,15.9v31.7c0,1.2-0.9,2.1-2.9,2.1c-2,0-2.9-0.8-2.9-2.1V53.5l-25.4,6.9
		c-0.3,0.1-0.6,0.1-0.9,0.1c-1.2,0-2.4-0.7-2.4-3c0-1.4,0.6-2.2,1.8-2.6l30.3-8.2c9.4-2.5,14-5.8,15.6-12.4c0.3-1.3,1.3-2,3.1-2
		c2.2,0,2.9,0.9,2.9,2.1C418.7,34.9,418.6,35.4,418.5,36"/>
	<path class="st0" d="M444.4,85.4h-14.9c-1.2,0-2.2-0.8-2.2-2.7c0-2,1-2.9,2.2-2.9h15.3c24.2,0,28.8-14.2,28.8-33.2v-2.8
		c0-1.2,0.8-2.2,2.8-2.2c2,0,2.8,1,2.8,2.2v3.4C479.2,68.5,473.6,85.4,444.4,85.4 M453,40.7h-22.3c-1.2,0-2.1-0.8-2.1-2.6
		c0-1.9,0.9-2.6,2.1-2.6H453c1.2,0,2.1,0.8,2.1,2.6C455.1,39.9,454.1,40.7,453,40.7 M453,58.9h-22.3c-1.2,0-2.1-0.7-2.1-2.6
		c0-1.8,0.9-2.6,2.1-2.6H453c1.2,0,2.1,0.8,2.1,2.6C455.1,58.2,454.1,58.9,453,58.9"/>
	<path class="st0" d="M538.3,85.2c-0.5,0-0.9-0.2-1.4-0.6L522,71.5c-7.5,6.8-18,11.7-31.2,13.5c-0.4,0.1-0.9,0.1-1.3,0.1
		c-1.4,0-2.4-1.1-2.4-3c0-1.6,0.7-2.5,2.1-2.7c26-3.4,40.3-19.5,40.3-36.5v-0.8c0-0.8-0.2-1.2-1-1.2h-37.3c-1.4,0-2.2-1.1-2.2-2.9
		c0-1.7,0.8-2.7,2.2-2.7h40.3c3,0,4.2,1.4,4.2,4.1v2.7c0,8.9-3.2,17.7-9.4,25l14,12.4c0.8,0.7,0.9,1.4,0.9,2.2
		C541.1,83.8,539.9,85.2,538.3,85.2"/>
	<path class="st0" d="M599.8,57.3h-11v4.4c0,14.9-9.2,23.7-28.8,23.7h-6.4c-1.3,0-2.2-0.8-2.2-2.7c0-2,0.9-2.8,2.2-2.8h6.4
		c15.7,0,22.9-6.6,22.9-18.2v-4.4h-31.3c-1.2,0-2.2-0.8-2.2-2.7c0-1.9,0.9-2.7,2.2-2.7h48.2c1.2,0,2.2,0.7,2.2,2.7
		C601.9,56.6,600.9,57.3,599.8,57.3 M598,40.7h-45.5c-1.2,0-2.2-0.7-2.2-2.7c0-1.9,0.9-2.7,2.2-2.7H598c1.2,0,2.2,0.8,2.2,2.7
		C600.2,39.9,599.3,40.7,598,40.7"/>
	<path class="st0" d="M658.7,86c-1.7,0-2.1-0.4-2.4-1.9l-1-3.9c-6.1,2.7-15.7,3.7-25.3,3.7h-17.8c-3.2,0-4.3-1.4-4.3-4.2
		c0-1,0.3-2,0.8-3.1c4.2-9.2,7.4-23,10-42c0.2-1.3,0.9-1.9,2.6-1.9c2.1,0,3.3,0.8,3.3,2c0,0.1-0.1,0.4-0.1,0.5
		c-2.5,20-5.6,33-9.7,41.6c-0.1,0.3-0.3,0.8-0.3,1.2c0,0.3,0.2,0.4,0.9,0.4h15.1c11.1,0,18.5-1.2,23.5-3.6l-7.6-31
		c0-0.2-0.1-0.4-0.1-0.6c0-1.2,1.1-2,3.1-2c1.6,0,2.3,0.4,2.6,1.8l10,40.1c0,0.1,0.1,0.4,0.1,0.6C662,85.1,661.1,86,658.7,86"/>
	<path class="st0" d="M130.2,47.9c-0.2,0-0.4-0.1-0.6-0.3l-2.1-2.9v13.1c0,0.5-0.4,0.8-1,0.8c-0.6,0-1-0.4-1-0.8V47.1
		c-0.7,1.8-1.5,3.5-2.2,4.9c-0.3,0.5-0.5,0.8-0.9,0.8c-0.5,0-0.9-0.5-0.9-1.1c0-0.4,0.1-0.6,0.3-0.9c1.6-2.4,3.7-6.9,3.7-10.4V40
		h-2.9c-0.5,0-0.9-0.4-0.9-1c0-0.5,0.4-0.9,0.9-0.9h2.9v-2.4c0-0.5,0.4-0.9,1-0.9c0.6,0,1,0.4,1,0.9v2.4h2.4c0.5,0,0.9,0.4,0.9,1
		c0,0.5-0.4,1-0.9,1h-2.4v2.3l3.3,4c0.2,0.2,0.2,0.4,0.2,0.6C131,47.4,130.7,47.9,130.2,47.9 M144.8,57.6c-0.2,0-0.3-0.1-0.4-0.2
		c-1.5-1.2-3.7-4.4-4.8-7.6v7.9c0,0.4-0.4,0.9-1,0.9c-0.6,0-1.1-0.5-1.1-0.9v-7.9c-1.2,3.2-3.5,6.3-5.1,7.6
		c-0.2,0.2-0.4,0.3-0.6,0.3c-0.5,0-0.9-0.4-0.9-0.9c0-0.3,0.1-0.6,0.3-0.8c1.9-1.9,4.4-5.1,5.4-8.5h-4.2c-0.4,0-0.9-0.4-0.9-1
		c0-0.6,0.4-1,0.9-1h5.1V40h-3.5c-0.3,1.3-0.6,2.6-0.9,3.4c-0.1,0.4-0.5,0.6-0.8,0.6c-0.4,0-1-0.3-1-0.8c0-0.1,0-0.2,0.1-0.3
		c0.5-1.5,1.2-3.7,1.4-6.9c0-0.5,0.4-0.7,1-0.7c0.5,0,0.9,0.3,0.9,0.8c0,0.6-0.1,1.3-0.2,1.9h3.1v-2.3c0-0.4,0.4-0.9,1.1-0.9
		c0.6,0,1,0.5,1,0.9V38h4.6c0.4,0,0.9,0.4,0.9,1c0,0.6-0.5,1-0.9,1h-4.6v5.4h5.2c0.4,0,0.9,0.4,0.9,1c0,0.6-0.5,1-0.9,1h-4.4
		c0.7,2.9,3,6.3,5.1,8.4c0.2,0.2,0.3,0.4,0.3,0.7C145.7,57.1,145.3,57.6,144.8,57.6"/>
	<path class="st0" d="M170.5,40.6h-5.6v0.7c0,7.4,1.8,11.9,6.1,14.8c0.3,0.2,0.4,0.5,0.4,0.8c0,0.6-0.4,1.1-1,1.1
		c-0.3,0-0.5-0.1-0.8-0.3c-4.3-2.7-6.7-8.5-6.7-16.5v-0.7h-14.4c-0.6,0-0.9-0.5-0.9-1c0-0.5,0.3-1,0.9-1h14.4v-2.9
		c0-0.6,0.5-0.9,1.1-0.9c0.5,0,1,0.3,1,0.9v2.9h3l-0.6-3c0-0.4,0.4-0.7,0.9-0.7c0.4,0,0.8,0.3,0.8,0.6l0.6,3.1h0.9
		c0.6,0,0.9,0.5,0.9,1.1C171.4,40.1,171.1,40.6,170.5,40.6 M161.4,56.6c-3.6,1-7.4,1.3-12.8,1.4c-0.6,0-0.9-0.5-0.9-1
		c0-0.5,0.3-1,0.9-1c1.8,0,3.5,0,5-0.1V47h-5c-0.6,0-0.9-0.5-0.9-1c0-0.5,0.3-1,0.9-1h12.1c0.6,0,0.9,0.5,0.9,1c0,0.5-0.3,1-0.9,1
		h-5.1v8.7c1.9-0.2,3.7-0.6,5.3-1.1c0.1,0,0.2,0,0.3,0c0.5,0,0.8,0.4,0.8,1C162.1,56,161.9,56.4,161.4,56.6"/>
	<path class="st0" d="M144.7,76.1h-15.4l-2,5c6.8,0,10.9-0.2,14.1-1.3l-1-2c-0.1-0.1-0.1-0.3-0.1-0.4c0-0.5,0.5-1,1.1-1
		c0.4,0,0.7,0.2,0.9,0.5l2.5,5.4c0.1,0.1,0.1,0.2,0.1,0.3c0,0.5-0.5,1-1.1,1c-0.4,0-0.7-0.2-0.8-0.5l-0.9-1.8
		c-3.6,1.5-8.4,1.6-17.6,1.6h-1.8c-0.4,0-0.9-0.4-0.9-1c0-0.5,0.4-0.9,0.9-0.9c0.8,0,1.5,0,2.2,0l2-5.1h-4.3c-0.4,0-0.8-0.4-0.8-1
		c0-0.6,0.5-1,0.8-1h22c0.4,0,0.9,0.4,0.9,1C145.5,75.7,145.1,76.1,144.7,76.1 M144.5,68.4c-0.1,0-0.2,0-0.3,0
		c-3.8-0.9-7.5-3.4-10-6.1c-0.1-0.1-0.3-0.2-0.4-0.2c-0.1,0-0.3,0.1-0.4,0.2c-2.8,2.9-6.3,5.1-10.2,6.2c-0.1,0-0.2,0-0.3,0
		c-0.6,0-1-0.6-1-1.1c0-0.5,0.2-0.9,0.7-1.1c4-1.1,7-3.2,9.7-5.8c0.3-0.3,0.8-0.7,1.5-0.7c0.7,0,1.1,0.4,1.4,0.7
		c2.7,2.7,5.5,4.6,9.7,5.8c0.4,0.1,0.6,0.5,0.6,1C145.5,67.8,145.1,68.4,144.5,68.4 M142.2,70.5h-17c-0.4,0-0.8-0.4-0.8-0.9
		c0-0.6,0.4-1,0.8-1h17c0.4,0,0.9,0.4,0.9,1C143.1,70.1,142.6,70.5,142.2,70.5"/>
	<path class="st0" d="M157,76.6c-0.2,0-0.4-0.1-0.6-0.2l-2.7-2.5v8.9c0,0.5-0.4,0.9-1,0.9c-0.6,0-1-0.4-1-0.9v-8.3
		c-0.6,0.6-2.4,2.5-3.2,2.5c-0.5,0-1-0.5-1-1c0-0.4,0.2-0.7,0.4-0.9c4.7-3.2,6.8-8.2,6.8-9.8c0-0.3-0.2-0.6-0.6-0.6h-5.7
		c-0.5,0-0.9-0.4-0.9-1c0-0.5,0.4-1,0.9-1h3v-2c0-0.5,0.4-0.9,1-0.9c0.6,0,1,0.4,1,0.9v2h1.5c1,0,1.8,0.7,1.8,1.7
		c0,1.9-1.1,4.6-2.8,7.2l3.5,3.2c0.2,0.2,0.4,0.5,0.4,0.7C157.9,76.2,157.4,76.6,157,76.6 M170.5,83h-12.1c-0.4,0-0.9-0.4-0.9-1.1
		c0-0.6,0.5-1,0.9-1h5.1V69.1H159c-0.4,0-0.9-0.4-0.9-1c0-0.6,0.5-1,0.9-1h4.4v-6.4c0-0.4,0.4-0.9,1-0.9c0.6,0,1,0.5,1,0.9v6.4h4.3
		c0.5,0,1,0.4,1,1c0,0.6-0.5,1-1,1h-4.3v11.8h5c0.4,0,0.9,0.4,0.9,1C171.4,82.6,170.9,83,170.5,83"/>
	<path class="st0" d="M0.2,111.5v-1.7h2.7v1.9h6.6v-2.9H2.9c-1.4,0-2.6-1.2-2.7-2.6v-2.7c0-1.5,1.2-2.7,2.7-2.7h6.6
		c1.5,0,2.7,1.2,2.7,2.7v1.7H9.5v-1.9H2.9v2.9h6.6c1.4,0,2.6,1.2,2.7,2.6v2.7c0,1.5-1.2,2.7-2.7,2.7H2.9
		C1.4,114.1,0.2,113,0.2,111.5"/>
	<path class="st0" d="M26.9,100.9v6.7c0,1.5-1.2,2.7-2.7,2.7h-2v3.9h-2.7v-3.9h-2c-1.5,0-2.7-1.2-2.7-2.7v-6.7h2.7v6.9h6.6v-6.9
		H26.9z"/>
	<path class="st0" d="M29.8,111.5v-1.7h2.7v1.9h6.6v-2.9h-6.6c-1.4,0-2.6-1.2-2.7-2.6v-2.7c0-1.5,1.2-2.7,2.7-2.7h6.6
		c1.5,0,2.7,1.2,2.7,2.7v1.7h-2.7v-1.9h-6.6v2.9h6.6c1.4,0,2.6,1.2,2.7,2.6v2.7c0,1.5-1.2,2.7-2.7,2.7h-6.6
		C31,114.1,29.8,113,29.8,111.5"/>
	<polygon class="st0" points="48.4,103.4 43.7,103.4 43.7,100.9 55.7,100.9 55.7,103.4 51,103.4 51,114.1 48.4,114.1 	"/>
	<polygon class="st0" points="57.9,100.9 68.4,100.9 68.4,103.4 60.6,103.4 60.6,106.3 68.1,106.3 68.1,108.8 60.6,108.8 
		60.6,111.6 68.4,111.6 68.4,114.1 57.9,114.1 	"/>
	<path class="st0" d="M71.4,103.5c0-1.5,1.2-2.7,2.7-2.7h5.1c0.7,0,1.4,0.3,1.9,0.7c0.5-0.5,1.2-0.7,1.9-0.7h5.1
		c1.5,0,2.7,1.2,2.7,2.7v10.6h-2.7v-10.8h-5.7v10.8h-2.7v-10.8H74v10.8h-2.7V103.5z"/>
	<path class="st0" d="M88.7,38.2L69.4,23.6c-0.2-0.2-1-0.8-1.3-0.9l-29-22c-1.2-0.9-3-0.8-4.1,0.2L17.9,17.5c-1.1,1-1,2.6,0.2,3.5
		l25.2,18.4c1.2,0.9,1.3,2.4,0.3,3.5l-8.6,8.6c-1,1-2.9,1.2-4,0.2l-19-14.8c-1.2-0.9-1.3-2.5-0.2-3.5l2.8-2.7c1.1-1,1.1-2.7,0-3.8
		l-0.9-0.9c-1-1.1-2.7-1.1-3.8,0l-8.2,8c-0.2,0.1-0.3,0.3-0.4,0.4C0.5,35,0,35.9,0,37.2c0,0.3,0,0.6,0,0.9c0,0.2,0,0.3,0,0.4
		l0.2,29.9c0,1.5,1,3.4,2.1,4.3l28.3,21.9c0.2,0.2,0.5,0.3,0.8,0.5c0.4,0.2,0.7,0.4,1,0.3c1,0.3,2.1,0.3,2.9,0l53-16.1
		c1.4-0.4,2.6-2,2.6-3.5V42.5C90.9,41,89.9,39.1,88.7,38.2 M33.4,88V68.4c0-1.5-1-3.4-2.1-4.3l-2.4-1.8c-1.2-0.9-2.1-0.4-2.1,1.1
		v19.9L9,69.5c-1.2-0.9-2.1-2.9-2.1-4.3L6.7,41l24.9,19.5c1.2,0.9,3,0.8,4-0.2L53.8,42c1-1,0.9-2.6-0.3-3.5L28.4,20.2
		c-1.2-0.9-1.3-2.4-0.2-3.5l7.4-7.1c1.1-1,2.9-1.1,4.1-0.2l18.4,14c1.2,0.9,1.3,2.5,0.2,3.5l-2.6,2.6c-1,1-1,2.8,0,3.8l0.9,0.9
		c1,1,2.8,1,3.8,0l5.1-5.1l13.3,10L57.6,63c-1,1.1-0.8,2.7,0.5,3.4l16.4,10.3l-18.9,5.8V47.1c0-1.5-0.9-1.8-1.9-0.8l-2.9,2.9
		c-1,1.1-1.9,3.1-1.9,4.6v29.5c0,0.4,0.1,0.7,0.2,1.1l-12.4,3.8C35.8,88.5,34.5,88.4,33.4,88 M84.2,71.1c0,1.1-0.7,2.3-1.6,3
		c-0.1-0.1-0.3-0.2-0.4-0.3L68.3,65c-1.3-0.8-1.5-2.3-0.5-3.4l15.9-17.9c0.3,0.7,0.5,1.5,0.5,2.2V71.1z"/>
</g>
</svg>
