<svg xmlns="http://www.w3.org/2000/svg" width="22" height="14" viewBox="0 0 22 14">
  <defs>
    <style>
      .cls-1 {
        fill: #2fa876;
        fill-rule: evenodd;
      }
    </style>
  </defs>
  <path id="シェイプ_855" data-name="シェイプ 855" class="cls-1" d="M186.619,1586.99c-0.049.09-.087,0.16-0.132,0.25a1.119,1.119,0,0,0-.825.04,1.847,1.847,0,0,0-1.1,1.41,2.119,2.119,0,0,0,.808,2.16,3.051,3.051,0,0,0,2.409.67,7.711,7.711,0,0,0,2.157-.59c0.131-.05.261-0.1,0.391-0.16a0.035,0.035,0,0,0,.017-0.02c-0.159-.13-0.323-0.25-0.476-0.39a3.222,3.222,0,0,1-1.087-2.04,0.145,0.145,0,0,0-.068-0.1,0.639,0.639,0,0,1-.137-1.08,0.386,0.386,0,0,1,.069-0.06,0.719,0.719,0,0,0-.1-0.12,3.624,3.624,0,0,1-.9-2.14,3,3,0,0,1,.362-1.62,4.138,4.138,0,0,1,1.612-1.61c0.038-.02.076-0.05,0.114-0.07,0.007,0,.012-0.01-0.007.01a3.459,3.459,0,0,1-.014-0.56,0.7,0.7,0,0,1,1.073-.55,0.8,0.8,0,0,0,.547.06,5.465,5.465,0,0,0,1.3-.47,10.44,10.44,0,0,1,2.357-.88,6.69,6.69,0,0,1,4.022.43c0.59,0.25,1.172.53,1.767,0.77a3.449,3.449,0,0,0,.715.17,0.553,0.553,0,0,0,.278-0.05c0.105-.03.2-0.09,0.309-0.11a0.683,0.683,0,0,1,.839.58,1.434,1.434,0,0,1-.013.48,0.121,0.121,0,0,0,.072.16,4.241,4.241,0,0,1,1.287,1.08,3.1,3.1,0,0,1,.479,3.26,3.806,3.806,0,0,1-.663,1.07c-0.028.03-.056,0.06-0.088,0.1,0.045,0.04.085,0.08,0.127,0.12a0.644,0.644,0,0,1-.185,1.02,0.156,0.156,0,0,0-.078.12,3.309,3.309,0,0,1-1.647,2.45,4.539,4.539,0,0,1-2.234.73c-0.414.02-.828-0.01-1.243-0.01a6.308,6.308,0,0,0-1.675.19,2.644,2.644,0,0,1-1.5,0,6.244,6.244,0,0,0-1.61-.19c-0.4,0-.805.04-1.2,0a2.2,2.2,0,0,0-.985.22c-0.835.32-1.667,0.64-2.513,0.93a6.384,6.384,0,0,1-2.418.34,3.883,3.883,0,0,1-3.169-1.63,3.194,3.194,0,0,1-.342-3.31,2.229,2.229,0,0,1,1.677-1.37,2.174,2.174,0,0,1,1.328.17C186.412,1586.89,186.507,1586.94,186.619,1586.99Zm14.8-6.19a7.2,7.2,0,0,1-1.941-.72c-0.284-.12-0.572-0.25-0.863-0.36a6.408,6.408,0,0,0-3.413-.34,8.913,8.913,0,0,0-2.069.71c-0.453.2-.91,0.39-1.371,0.58a4.558,4.558,0,0,1-.55.14,3.479,3.479,0,0,1,.577,1.19,7.489,7.489,0,0,1,.141,3.55,3.3,3.3,0,0,1-.326.93c0.063-.21.141-0.43,0.195-0.64a6.684,6.684,0,0,0,.065-2.62,5.26,5.26,0,0,0-.569-1.83,1.974,1.974,0,0,0-.6-0.69,0.445,0.445,0,0,0-.719.36,0.811,0.811,0,0,0,.169.54,2.792,2.792,0,0,1,.33.54,4.992,4.992,0,0,1,.267,2.05,4.312,4.312,0,0,1-.507,2.01,1.97,1.97,0,0,1-1.287,1.06,0.469,0.469,0,0,0-.276.22,0.309,0.309,0,0,0,.186.47,0.176,0.176,0,0,1,.195.21,2.669,2.669,0,0,0,.341,1.15,0.891,0.891,0,0,0,1.008.47,7.2,7.2,0,0,0,1.36-.45c0.712-.28,1.417-0.58,2.141-0.83a7.708,7.708,0,0,1,3.693-.28,12.554,12.554,0,0,1,2.979.98,7.43,7.43,0,0,0,1.649.58,0.893,0.893,0,0,0,1.008-.47,2.643,2.643,0,0,0,.338-1.17,0.162,0.162,0,0,1,.184-0.19,0.214,0.214,0,0,0,.221-0.19,0.393,0.393,0,0,0-.318-0.51,1.639,1.639,0,0,1-.722-0.37,2.816,2.816,0,0,1-.839-1.37,5.889,5.889,0,0,1-.178-2.35,2.858,2.858,0,0,1,.61-1.64,0.635,0.635,0,0,0,.092-0.59,0.388,0.388,0,0,0-.4-0.31,0.713,0.713,0,0,0-.492.25,2.869,2.869,0,0,0-.666,1.11,6.66,6.66,0,0,0-.389,1.97,5.405,5.405,0,0,0,.354,2.56,0.06,0.06,0,0,1,0,.02c-0.013,0-.025.01-0.037,0.01-0.09-.27-0.2-0.54-0.267-0.81a6.752,6.752,0,0,1-.114-2.64A4.6,4.6,0,0,1,201.423,1580.8Zm-2.453,8.1c0-.01.008-0.02,0.011-0.03-0.364-.1-0.728-0.2-1.094-0.29a0.16,0.16,0,0,0-.111.03c-0.427.16-.855,0.32-1.278,0.5l-4.441,1.86a20.5,20.5,0,0,1-2.406.91,7.108,7.108,0,0,1-3,.26,3.234,3.234,0,0,1-2.065-1.14,0.97,0.97,0,0,1-.056-0.08c-0.017-.02-0.029-0.05-0.043-0.07a3.25,3.25,0,0,0,1.882,1.15,5.119,5.119,0,0,0,1.657.05,7.851,7.851,0,0,0,2.382-.62c1.128-.48,2.24-1,3.361-1.49,0.945-.42,1.893-0.83,2.84-1.25l0.519-.21a2.06,2.06,0,0,0-.487-0.06,2.565,2.565,0,0,0-1.287.15c-0.461.2-.92,0.42-1.363,0.66-1.2.65-2.39,1.31-3.647,1.85a8.475,8.475,0,0,1-2.659.74,3.354,3.354,0,0,1-2.54-.78,2.421,2.421,0,0,1-.877-2.33,2.213,2.213,0,0,1,1-1.55c0.118-.07.251-0.13,0.378-0.19,0-.01,0-0.02,0-0.03a4.148,4.148,0,0,0-.612.03,1.916,1.916,0,0,0-1.419,1.14,2.915,2.915,0,0,0,.073,2.75,3.372,3.372,0,0,0,2.289,1.72,5.653,5.653,0,0,0,3.05-.16c1.4-.45,2.76-1.01,4.109-1.59,1.041-.45,2.086-0.89,3.129-1.34a7.51,7.51,0,0,1,1.55-.37C198.192,1589.04,198.581,1588.97,198.97,1588.9Zm-5.965,2.29c0,0.01,0,.01.006,0.02h0.7a7.122,7.122,0,0,1,1.951.2,2.433,2.433,0,0,0,1.228.02,3.348,3.348,0,0,1,.436-0.1,8.011,8.011,0,0,1,2.015-.11,4.532,4.532,0,0,0,3-.88c0.1-.07.186-0.16,0.309-0.26a3.954,3.954,0,0,1-1.689-.4l-0.909-.39a1.287,1.287,0,0,0-.771-0.12c-0.5.08-.991,0.15-1.483,0.25a8.84,8.84,0,0,0-1.357.32c-0.808.3-1.595,0.65-2.389,0.99C193.7,1590.88,193.354,1591.04,193.005,1591.19Zm10.918-4.5a6.165,6.165,0,0,1-.4-0.54,3.7,3.7,0,0,1-.457-2.54c0.059-.44.2-0.87,0.3-1.3a0.19,0.19,0,0,0-.017-0.15c-0.177-.13-0.363-0.25-0.548-0.37a0.1,0.1,0,0,0-.142.04,2.951,2.951,0,0,0-.247.46,5.467,5.467,0,0,0-.195.9,4.939,4.939,0,0,0,.406,2.83,1.731,1.731,0,0,0,.727.79C203.727,1587.02,203.66,1587.01,203.923,1586.69Zm-14.035-4.94c-0.181.12-.365,0.25-0.554,0.36a0.154,0.154,0,0,0-.069.21,5.745,5.745,0,0,1,.342,2.06,3.408,3.408,0,0,1-.556,1.86c-0.1.15-.229,0.29-0.35,0.45,0.052,0.06.111,0.12,0.161,0.19a0.129,0.129,0,0,0,.193.04,3.644,3.644,0,0,0,.47-0.28,2.475,2.475,0,0,0,.764-1.34,5.783,5.783,0,0,0,.052-2.61A1.732,1.732,0,0,0,189.888,1581.75Zm-0.9.66a3.182,3.182,0,0,0-.848,1.16,0.221,0.221,0,0,0,.015.17,1.447,1.447,0,0,1-.076,1.63,0.147,0.147,0,0,0-.027.11,3.093,3.093,0,0,0,.458.96,2.255,2.255,0,0,0,.5-0.71A4.557,4.557,0,0,0,188.992,1582.41Zm14.655-.01c-0.016.04-.025,0.05-0.03,0.07a5.584,5.584,0,0,0-.3,1.98,3,3,0,0,0,.611,1.78c0.055,0.07.119,0.14,0.183,0.21a3.162,3.162,0,0,0,.461-0.95,0.151,0.151,0,0,0-.023-0.12,1.457,1.457,0,0,1-.074-1.65,0.194,0.194,0,0,0,.007-0.14,2.837,2.837,0,0,0-.53-0.86C203.861,1582.61,203.755,1582.52,203.647,1582.4Zm-10.235,6.8a0.458,0.458,0,0,1-.075-0.01,2.159,2.159,0,0,0-1,.2c-0.533.22-1.069,0.42-1.614,0.61a4,4,0,0,1-.734.11c0.224,0.16.435,0.32,0.653,0.46a0.125,0.125,0,0,0,.142-0.01c0.833-.42,1.666-0.85,2.5-1.28A1.271,1.271,0,0,0,193.412,1589.2Zm11.258-4.17v-0.92h-0.054A1.179,1.179,0,0,0,204.67,1585.03Zm-16.655-.92h-0.053v0.92A1.183,1.183,0,0,0,188.015,1584.11Zm5.568,4.79a1.058,1.058,0,0,0,.824-0.21l-0.009-.03C194.135,1588.73,193.871,1588.81,193.583,1588.9Zm1.881-2.45a0.49,0.49,0,0,1,.493.49,0.507,0.507,0,0,1-.488.49,0.5,0.5,0,0,1-.493-0.5A0.484,0.484,0,0,1,195.464,1586.45Zm0.2,0.49a0.2,0.2,0,0,0-.2-0.2,0.2,0.2,0,0,0-.2.2,0.207,0.207,0,0,0,.2.2A0.2,0.2,0,0,0,195.666,1586.94Zm1.006,0a0.491,0.491,0,0,1,.982-0.01A0.491,0.491,0,1,1,196.672,1586.94Zm0.5,0.2a0.206,0.206,0,0,0,.191-0.21,0.19,0.19,0,0,0-.2-0.19,0.2,0.2,0,0,0-.193.2A0.21,0.21,0,0,0,197.17,1587.14Z" transform="translate(-183 -1579)"/>
</svg>
