<?xml version="1.0" encoding="utf-8"?>
<!-- Generator: Adobe Illustrator 24.1.2, SVG Export Plug-In . SVG Version: 6.00 Build 0)  -->
<svg version="1.1" id="レイヤー_1" xmlns="http://www.w3.org/2000/svg" xmlns:xlink="http://www.w3.org/1999/xlink" x="0px"
	 y="0px" viewBox="0 0 90.9 95.5" style="enable-background:new 0 0 90.9 95.5;" xml:space="preserve">
<style type="text/css">
	.st0{fill:#040000;}
</style>
<path class="st0" d="M88.7,38.1L69.4,23.5c-0.2-0.2-1-0.8-1.3-0.9l-29-22c-1.2-0.9-3-0.8-4.1,0.2L17.9,17.4c-1.1,1-1,2.6,0.2,3.5
	l25.2,18.4c1.2,0.9,1.3,2.4,0.3,3.5L35,51.4c-1,1-2.9,1.2-4,0.2L12,36.8c-1.2-0.9-1.3-2.5-0.2-3.5l2.8-2.7c1.1-1,1.1-2.7,0-3.8
	l-0.9-0.9c-1-1.1-2.7-1.1-3.8,0l-8.2,8c-0.2,0.1-0.3,0.3-0.4,0.4C0.5,34.9,0,35.8,0,37.1c0,0.3,0,0.6,0,0.9c0,0.2,0,0.3,0,0.4
	l0.2,29.9c0,1.5,1,3.4,2.1,4.3l28.3,21.9c0.2,0.2,0.5,0.3,0.8,0.5c0.4,0.2,0.7,0.4,1,0.3c1,0.3,2.1,0.3,2.9,0l53-16.1
	c1.4-0.4,2.6-2,2.6-3.5V42.4C90.9,40.9,89.9,39,88.7,38.1 M33.4,87.9V68.3c0-1.5-1-3.4-2.1-4.3l-2.4-1.8c-1.2-0.9-2.1-0.4-2.1,1.1
	v19.9L9,69.4c-1.2-0.9-2.1-2.9-2.1-4.3L6.7,40.9l24.9,19.5c1.2,0.9,3,0.8,4-0.2l18.2-18.3c1-1,0.9-2.6-0.3-3.5L28.4,20.1
	c-1.2-0.9-1.3-2.4-0.2-3.5l7.4-7.1c1.1-1,2.9-1.1,4.1-0.2l18.4,14c1.2,0.9,1.3,2.5,0.2,3.5l-2.6,2.6c-1,1-1,2.8,0,3.8l0.9,0.9
	c1,1,2.8,1,3.8,0l5.1-5.1l13.3,10L57.6,62.9c-1,1.1-0.8,2.7,0.5,3.4l16.4,10.3l-18.9,5.8V47c0-1.5-0.9-1.8-1.9-0.8l-2.9,2.9
	c-1,1.1-1.9,3.1-1.9,4.6v29.5c0,0.4,0.1,0.7,0.2,1.1l-12.4,3.8C35.8,88.4,34.5,88.3,33.4,87.9 M84.2,71c0,1.1-0.7,2.3-1.6,3
	c-0.1-0.1-0.3-0.2-0.4-0.3l-13.9-8.8c-1.3-0.8-1.5-2.3-0.5-3.4l15.9-17.9c0.3,0.7,0.5,1.5,0.5,2.2C84.2,45.8,84.2,71,84.2,71z"/>
</svg>
